<?xml version="1.0" encoding="utf-8"?>
<!-- Generator: Adobe Illustrator 25.0.0, SVG Export Plug-In . SVG Version: 6.00 Build 0)  -->
<svg version="1.1" id="Layer_1" xmlns="http://www.w3.org/2000/svg" xmlns:xlink="http://www.w3.org/1999/xlink" x="0px" y="0px"
	 viewBox="0 0 256 256" style="enable-background:new 0 0 256 256;" xml:space="preserve">
<style type="text/css">
	.st0{fill:#FFFFFF;}
	.st1{fill:none;}
	.st2{fill:#DCB3CD;}
	.st3{fill:#EF4681;}
	.st4{fill:#D83E81;}
	.st5{fill:#16988A;}
</style>
<rect class="st0" width="256" height="256"/>
<path class="st1" d="M144,173.2v4.9h4.3v-5.7L144,173.2z"/>
<path class="st1" d="M137.9,133.7c-2.6-2-5.7-3.5-8.9-4.2h-0.3c-2.1,0-4.2-0.2-6.2-0.7c-3.1,0.2-6,1.4-8.4,3.3
	c-3.2,2.9-5,7.1-4.9,11.4v16.6c0.1,4.5,1.2,8.9,3.3,12.9c5.3,1,10.8,1.5,16.2,1.4c5.1,0,10.2-0.4,15.3-1.2v-23.4
	C144,139.7,141.1,136.6,137.9,133.7z"/>
<path class="st1" d="M79.7,99.6c7.9-6.8,17.4-11.6,27.6-13.8v-6.7H63.9v32c0,3.9,0.3,7.8,0.9,11.6C67.6,113.8,72.7,105.8,79.7,99.6z
	"/>
<path class="st2" d="M148.3,149.8c0-10.1-2.8-13.2-6.1-16.1s-6-3.6-9.9-4.5c-1.1,0.2-2.2,0.3-3.3,0.3c3.2,0.7,6.3,2.2,8.9,4.2
	c3.2,2.9,6.1,6,6.1,16.1v23.4l4.3-0.8V149.8z"/>
<path class="st3" d="M129,129.5c1.1,0,2.2-0.1,3.3-0.3c-1.8-0.4-3.6-0.6-5.4-0.6h-1.2v0.2L129,129.5z"/>
<path class="st3" d="M188,143c-3,6-7.1,11.4-12.1,15.8c-7.9,6.8-17.4,11.5-27.6,13.6v5.7h39.8v-31.7
	C188.1,145.3,188.1,144.2,188,143z"/>
<path class="st3" d="M169.5,99.8c8.8,8.8,17.4,26.7,18.5,43.2c1.3-2.7,2.4-5.4,3.2-8.3c-2.8-13.9-10.1-27.5-17.4-34.9
	S155.1,87,142.6,85c0.2,0.3,0.4,0.6,0.5,0.9C153.5,88.3,162.5,92.8,169.5,99.8z"/>
<path class="st1" d="M89,164.1l2.2,1.3L89,164.1z"/>
<path class="st1" d="M95.3,167.6l0.6,0.3L95.3,167.6z"/>
<path class="st1" d="M91.7,165.7l2.1,1.2L91.7,165.7z"/>
<path class="st3" d="M95.3,167.6l-1.5-0.7l-2.1-1.2l-0.5-0.3l-2.2-1.3l0,0c-2.5-1.6-5-3.5-7.2-5.5c-9.3-8.2-15-22-17-35.9
	c-1.9,6.2-2.9,12.7-2.8,19.2V163c-0.1,11.6,2.8,23.1,8.5,33.2c5.6,10.2,11.7,16.6,19.5,24.2c9.4,9.3,17.9,16.8,25.8,23.3
	c5.2,4.3,9.8,8.1,14,12.3c17.6-0.2,35-4.1,51-11.4c-5-8.6-11.1-16.8-18.2-22.7l-24.4-20.3c-7.9-6.5-14-11.9-19.7-19.3
	c-2.3-2.9-4.3-6-6-9.2c-5.7-1.1-11.3-2.8-16.6-5.2L95.3,167.6z"/>
<path class="st3" d="M89,164.1"/>
<path class="st3" d="M91.2,165.4l0.5,0.3L91.2,165.4z"/>
<path class="st3" d="M93.8,166.9l1.5,0.7L93.8,166.9z"/>
<path class="st3" d="M95.9,167.9c5.3,2.4,10.9,4.1,16.6,5.2l0,0C106.8,172,101.2,170.3,95.9,167.9z"/>
<path class="st3" d="M132.3,129.2c3.4-0.4,6.6-1.8,9.2-4c3.3-2.8,5.1-7,4.9-11.3V99.8c0-4.8-1.1-9.6-3.3-13.9
	c-5.7-1.3-11.5-1.9-17.4-2v44.7h1.2C128.7,128.6,130.5,128.8,132.3,129.2z"/>
<path class="st3" d="M126.9,83.8c-6.6,0-13.2,0.6-19.6,2v22.8c0,4.6,3.9,13.7,7.2,16.6c2.3,1.8,5.1,3.1,8,3.6l3.2-0.2V83.9
	c5.9,0.1,11.7,0.7,17.4,2c-0.1-0.3-0.3-0.6-0.5-0.9C137.4,84.2,132.2,83.8,126.9,83.8z"/>
<path class="st3" d="M191.2,134.7c-0.8,2.9-1.9,5.6-3.2,8.3c0.1,1.2,0.1,2.3,0.1,3.4v31.7h4.4v-31.7
	C192.5,142.5,192,138.5,191.2,134.7z"/>
<path class="st3" d="M143.1,85.9c2.2,4.3,3.3,9.1,3.3,13.9v14.1c0.2,4.3-1.6,8.5-4.9,11.3c-2.6,2.2-5.8,3.6-9.2,4
	c3.9,0.9,7.7,2.5,9.9,4.5s6.1,6,6.1,16.1v22.6c10.2-2.1,19.7-6.8,27.6-13.6c5-4.4,9.1-9.8,12.1-15.8c-1.1-16.5-9.7-34.4-18.5-43.2
	C162.5,92.8,153.5,88.3,143.1,85.9z"/>
<path class="st4" d="M62.3,135.5c0.4-4.3,1.2-8.6,2.5-12.8l0,0C63.5,126.9,62.7,131.2,62.3,135.5z"/>
<path class="st3" d="M122.5,128.8c2,0.5,4.1,0.7,6.2,0.7h0.3l-3.3-0.7v-0.2L122.5,128.8z"/>
<path class="st5" d="M128,0h-4.6c4.5,5.1,9.5,9.7,14.8,14c7.9,6.4,17.8,15.5,26.2,22.3s15.3,16.8,20.9,26.9
	c5.6,10.1,8.6,21.4,8.7,33l-0.4,20.7c0.1,6-0.8,11.9-2.4,17.7c0.8,3.8,1.3,7.8,1.3,11.7V178h-44.2v-5.7c-6.3,1.6-14.2,2-19.6,2
	c-5.4,0.1-10.9-0.4-16.2-1.4c1.7,3.3,3.7,6.4,6,9.3c5.7,7.4,11.8,12.8,19.7,19.3l24.4,20.3c7.1,5.9,13.2,14.1,18.2,22.7
	c64.3-29.3,92.8-105.2,63.5-169.5C223.5,29.4,178.1,0.1,128,0z"/>
<path class="st5" d="M90,220.4c-7.8-7.6-13.9-14-19.5-24.2c-5.7-10.1-8.6-21.6-8.5-33.2v-21.1c0-2.2,0.1-4.3,0.3-6.4l0,0
	c0.4-4.3,1.2-8.6,2.5-12.8c-0.6-3.8-0.9-7.6-0.9-11.5v-32h43.4v6.7c6.4-1.4,13-2,19.6-2c5.3-0.1,10.5,0.3,15.7,1.1
	c-1.3-2.5-2.9-4.9-4.6-7.2c-5.4-7.1-11.7-13.5-18.6-19.1c-7.8-6.5-17.2-13.6-25.3-22S79.2,21.8,73.6,12.1
	C9.6,42.1-18,118.3,12,182.3c21.1,45,66.3,73.7,116,73.7h1.8c-4.2-4.2-8.8-8-14-12.3C107.9,237.2,99.4,229.7,90,220.4z"/>
<path class="st4" d="M95.3,167.6l-1.5-0.7l-2.1-1.2l-0.5-0.3l-2.2-1.3l0,0c-2.5-1.6-4.9-3.4-7.1-5.4c-9.4-8.3-15.2-22.3-17.2-36.3
	v0.2l0,0c-1.3,4.2-2.1,8.5-2.5,12.8c3,9.1,7.6,17.4,14,23c8.6,7.6,22.1,12.4,36.2,14.6h-0.1c-5.7-1-11.2-2.7-16.5-5.1L95.3,167.6z"
	/>
</svg>
